<?xml version="1.0" encoding="UTF-8"?>
<svg width="65px" height="65px" viewBox="0 0 101 100" version="1.1" xmlns="http://www.w3.org/2000/svg" xmlns:xlink="http://www.w3.org/1999/xlink">
    <title>10. Chart up</title>
    <g id="Page-1" stroke="none" stroke-width="1" fill="none" fill-rule="evenodd" stroke-linecap="round" stroke-linejoin="round">
        <g id="10.-Chart-up" stroke="#F9B208" stroke-width="4">
            <g transform="translate(2.000000, 2.000000)">
                <path d="M0,83.0094776 C0,81.347389 1.35010672,80 3,80 L16.2,80 C17.8568542,80 19.2,81.3366311 19.2,83.0094776 L19.2,96 L0,96 L0,83.0094776 Z" id="Layer-1"></path>
                <path d="M19,63.0074199 C19,61.3464677 20.3501067,60 22,60 L35.2,60 C36.8568542,60 38.2,61.3455393 38.2,63.0074199 L38.2,96 L19,96 L19,63.0074199 Z" id="Layer-2"></path>
                <path d="M38,42.9910051 C38,41.3391186 39.3501067,40 41,40 L54.2,40 C55.8568542,40 57.2,41.3427539 57.2,42.9910051 L57.2,96 L38,96 L38,42.9910051 Z" id="Layer-3"></path>
                <path d="M58,23.0026984 C58,21.3443539 59.3501067,20 61,20 L74.2,20 C75.8568542,20 77.2,21.3513777 77.2,23.0026984 L77.2,96 L58,96 L58,23.0026984 Z" id="Layer-4"></path>
                <path d="M77,3.00494794 C77,1.34536102 78.3501067,0 80,0 L93.2,0 C94.8568542,0 96.2,1.33876028 96.2,3.00494794 L96.2,96 L77,96 L77,3.00494794 Z" id="Layer-5"></path>
                <path d="M39.2992615,28.7646856 C39.6740848,29.1395089 39.9796684,29.0128809 39.9802524,28.480305 L39.9994612,10.9632573 C40.0000535,10.4231782 39.5687805,9.9994166 39.0362045,10.0000006 L21.5191565,10.019209 C20.9790774,10.0198012 20.859259,10.324683 21.2347759,10.7001999 L26.2059145,15.6713385 L10.8405038,31.0367492 C9.719102,32.158151 9.71957859,33.9798435 10.8434584,35.1037233 L14.8792955,39.1395605 C16.000182,40.260447 17.8240216,40.264763 18.9462696,39.142515 L34.3116803,23.7771044 L39.2992615,28.7646856 Z" id="Layer-6"></path>
            </g>
        </g>
    </g>
</svg>