<?xml version="1.0" encoding="UTF-8"?>
<svg width="65px" height="65px" viewBox="0 0 100 100" version="1.1" xmlns="http://www.w3.org/2000/svg" xmlns:xlink="http://www.w3.org/1999/xlink">
    <title>26. Bitcoin</title>
    <g id="Page-1" stroke="none" stroke-width="1" fill="none" fill-rule="evenodd" stroke-linecap="round" stroke-linejoin="round">
        <g id="26.-Bitcoin" stroke="#F9B208" stroke-width="4">
            <g transform="translate(2.000000, 2.000000)">
                <rect id="Layer-1" x="0" y="0" width="96" height="96" rx="23"></rect>
                <path d="M52.8095463,24.989648 C50.4907058,24.8571429 49.4306643,24.8571429 47.6418445,24.8571429 L36.1138942,24.8571429 L36.1138942,70.5714286 L48.8343911,70.5714286 C50.4244532,70.5714286 51.6832523,70.5714286 53.339567,70.4389234 C60.1635836,70.0414079 66.0600639,65.7349896 66.0600639,58.447205 C66.0600639,52.2194617 62.6149294,47.515528 55.4596498,46.4554865 C60.9586147,45.5942029 64.3374966,41.552795 64.3374966,35.7888199 C64.3374966,29.4285714 59.6998155,25.4534161 52.8095463,24.989648 Z" id="Layer-2"></path>
                <line x1="55.8281808" y1="46.6476191" x2="36.5492806" y2="46.647619" id="Layer-3"></line>
                <line x1="40.8281799" y1="18.3116883" x2="40.8281799" y2="24.5454545" id="Layer-4"></line>
                <line x1="49.8281799" y1="18.3116883" x2="49.8281799" y2="24.5454545" id="Layer-5"></line>
                <line x1="40.2567513" y1="71.4545455" x2="40.2567513" y2="77.6883117" id="Layer-6"></line>
                <line x1="49.2567513" y1="71.4545455" x2="49.2567513" y2="77.6883117" id="Layer-7"></line>
            </g>
        </g>
    </g>
</svg>